<svg height="384pt" viewBox="0 -16 384.27136 384" width="384pt" xmlns="http://www.w3.org/2000/svg"><path d="m377.445312 91.640625h-90.113281c-1.253906 0-2.414062.363281-3.421875.953125-4.226562-3.695312-8.988281-6.769531-14.15625-9.082031-2.285156-10.757813-.167968-20.859375 5.9375-27.914063 10.695313-12.367187 24.84375-16.351562 59.160156 4.460938 7.195313 4.347656 11.875 1.632812 13.554688.261718 2.386719-1.953124 5.847656-6.765624 2.167969-17.101562-5.308594-14.902344-27.394531-43.082031-73-43.082031-42.753907 0-77.539063 34.8125-77.539063 77.601562 0 .269531.003906.601563.003906.902344h-15.808593c.003906-.304687.007812-.632813.007812-.902344 0-42.789062-34.785156-77.601562-77.539062-77.601562-11.59375 0-21.65625 1.824219-30.320313 4.785156-.175781.003906-.34375-.023437-.527344-.007813-1.519531.121094-2.871093.753907-3.9375 1.691407-22.519531 9.214843-34.492187 26.171875-38.207031 36.613281-3.679687 10.339844-.226562 15.152344 2.167969 17.101562 1.679688 1.371094 6.371094 4.085938 13.546875-.265624 34.320313-20.804688 48.472656-16.820313 59.167969-4.457032 6.316406 7.308594 8.386718 17.921875 5.664062 29.117188-.125.507812-.171875 1.015625-.179687 1.515625-2.734375 1.59375-5.332031 3.398437-7.757813 5.414062h-99.488281c-3.773437 0-6.828125 3.054688-6.828125 6.824219v14.308594c0 33.875 27.558594 61.4375 61.441406 61.4375h23.890625v24.855468c0 17.539063 6.480469 34.25 18.253907 47.058594 9.238281 10.054688 17.28125 22.414063 25.300781 38.902344l16.910156 34.75c7.734375 15.871094 21.1875 27.019531 36.910156 30.589844 2.660157.605468 5.320313.980468 7.972657 1.171875.46875.101562.957031.164062 1.457031.164062h66.722656c15.058594 0 27.304687-12.25 27.304687-27.304687v-6.828125c0-15.054688-12.246093-27.308594-27.304687-27.308594h-1.175781l2.550781-5.234375c8.023437-16.488281 16.058594-28.851562 25.296875-38.902344 11.773438-12.808594 18.253906-29.519531 18.253906-47.058594v-24.855468h19.046875c33.878907 0 61.4375-27.5625 61.4375-61.4375v-14.308594c.003907-3.769531-3.050781-6.828125-6.824219-6.828125zm-47.390624-56.1875c3.21875 3.699219 5.3125 7.085937 6.605468 9.816406-8.382812-4.796875-17.066406-9.003906-25.710937-11.429687l1-12.34375c8.683593 4.421875 14.554687 9.882812 18.105469 13.957031zm-31.402344-18.996094-1.230469 15.210938c-6.757813-.167969-13.371094 1.191406-19.664063 4.679687l-14.640624-20.886718c4.648437-1.082032 9.484374-1.671876 14.457031-1.671876 7.980469 0 14.960937 1.035157 21.078125 2.667969zm-48.800782 3.671875c.160157.339844.332032.671875.554688.992188l16.625 23.714844c-.558594.589843-1.113281 1.191406-1.664062 1.828124-1.226563 1.417969-2.34375 2.917969-3.355469 4.480469l-39.523438-5.738281c6.40625-10.898438 15.9375-19.746094 27.363281-25.277344zm-36.164062 57.609375c0-6.753906 1.058594-13.261719 3.003906-19.375l39.796875 5.777344c-1.152343 4.796875-1.546875 9.890625-1.128906 15.136719-2.734375-.414063-5.527344-.632813-8.371094-.632813h-33.292969c-.003906-.308593-.007812-.636719-.007812-.90625zm-52.054688-32.597656-39.53125 5.738281c-.96875-1.46875-2.027343-2.875-3.1875-4.21875-.929687-1.074218-1.871093-2.058594-2.824218-3.003906l15.796875-22.539062c.386719-.550782.644531-1.148438.851562-1.757813 12.074219 5.421875 22.175781 14.476563 28.894531 25.78125zm-114.019531.125c1.300781-2.726563 3.386719-6.117187 6.613281-9.816406 3.277344-3.765625 8.570313-8.707031 16.203126-12.925781l.960937 11.890624c-8 2.484376-16.019531 6.410157-23.777344 10.851563zm37.265625-13.496094-1.195312-14.777343c6.558594-1.953126 14.183594-3.203126 23.015625-3.203126 4.367187 0 8.628906.445313 12.75 1.28125l-14.386719 20.523438c-6.472656-3.230469-13.261719-4.296875-20.183594-3.824219zm42.835938 32.09375 39.773437-5.777343c2.003907 6.195312 3.097657 12.796874 3.097657 19.652343 0 .269531-.003907.597657-.007813.902344h-28.445313c-4.585937 0-9.042968.574219-13.316406 1.625.5625-5.695313.179688-11.226563-1.101562-16.402344zm-66.273438 96.699219c-26.347656 0-47.789062-21.4375-47.789062-47.785156v-7.480469h80.695312c-5.695312 9.015625-9.015625 19.726563-9.015625 31.222656v24.042969zm197.417969 143.359375c7.527344 0 13.65625 6.125 13.65625 13.652344v6.828125c0 7.53125-6.128906 13.652344-13.65625 13.652344h-28.894531c5.089844-4.570313 9.40625-10.160157 12.570312-16.660157l8.503906-17.472656zm31.273437-104.851563c0 14.109376-5.207031 27.539063-14.652343 37.816407-10.160157 11.058593-18.90625 24.453125-27.527344 42.171875l-5.855469 12.03125c-10.871094-31.703125-14.171875-65.34375-9.804687-100.214844 1.957031-15.589844 15.609375-27.347656 31.753906-27.347656h1.046875c3.773438 0 6.824219-3.054688 6.824219-6.824219s-3.050781-6.828125-6.824219-6.828125h-1.046875c-23.011719 0-42.488281 16.894531-45.300781 39.300781-5.210938 41.5625-.101563 81.507813 15.132812 118.792969l-3.625 7.449219c-5.792968 11.894531-16.644531 19.792969-28.867187 21.980469v-29.355469l12.492187-14.679688c2.441406-2.871093 2.09375-7.179687-.773437-9.625-2.867188-2.4375-7.179688-2.101562-9.625.777344l-8.542969 10.035156-8.125-10.378906c-2.328125-2.96875-6.613281-3.503906-9.582031-1.167969-2.972657 2.324219-3.492188 6.613282-1.164063 9.582032l11.664063 14.902343v29.929688c-.667969-.113281-1.332031-.210938-2-.363281-11.5-2.609376-21.832031-11.300782-27.652344-23.253907l-3.03125-6.222656c15.113281-37.179687 20.171875-76.992187 14.972656-118.402344-2.800781-22.40625-22.273437-39.300781-45.292969-39.300781h-1.054687c-3.773437 0-6.828125 3.054688-6.828125 6.824219s3.054688 6.828125 6.828125 6.828125h1.054687c16.144532 0 29.792969 11.757812 31.746094 27.34375 4.355469 34.714844 1.097656 68.207031-9.660156 99.789062l-5.648438-11.605468c-8.621093-17.707032-17.367187-31.109376-27.527343-42.167969-9.445313-10.28125-14.652344-23.710938-14.652344-37.816407v-62.554687c0-24.382813 19.355469-44.222656 43.148437-44.222656h104.851563c23.792969 0 43.148437 19.839843 43.148437 44.222656zm80.488282-86.292968c0 26.347656-21.441406 47.785156-47.789063 47.785156h-19.046875v-24.042969c0-11.496093-3.316406-22.207031-9.011718-31.222656h75.847656zm0 0"/><path d="m263.039062 186.339844c-11.710937 0-21.246093 9.53125-21.246093 21.246094 0 3.769531 3.054687 6.828124 6.828125 6.828124 3.773437 0 6.824218-3.058593 6.824218-6.828124 0-4.1875 3.410157-7.59375 7.59375-7.59375 4.1875 0 7.59375 3.40625 7.59375 7.59375 0 3.769531 3.054688 6.828124 6.828126 6.828124 3.773437 0 6.824218-3.058593 6.824218-6.828124 0-11.714844-9.53125-21.246094-21.246094-21.246094zm0 0"/><path d="m103.71875 207.585938c0 3.769531 3.054688 6.828124 6.828125 6.828124s6.824219-3.058593 6.824219-6.828124c0-4.1875 3.40625-7.59375 7.59375-7.59375s7.59375 3.40625 7.59375 7.59375c0 3.769531 3.054687 6.828124 6.828125 6.828124 3.773437 0 6.824219-3.058593 6.824219-6.828124 0-11.714844-9.53125-21.246094-21.246094-21.246094-11.710938 0-21.246094 9.53125-21.246094 21.246094zm0 0"/></svg>